<svg xmlns="http://www.w3.org/2000/svg" xmlns:xlink="http://www.w3.org/1999/xlink" contentStyleType="text/css" height="396px" preserveAspectRatio="none" style="width:1211px;height:396px;background:#FFFFFF;" version="1.1" viewBox="0 0 1211 396" width="1211px" zoomAndPan="magnify"><defs><filter height="300%" id="f1x36mnmpd4d44" width="300%" x="-1" y="-1"><feGaussianBlur result="blurOut" stdDeviation="2"/><feColorMatrix in="blurOut" result="blurOut2" type="matrix" values="0 0 0 0 0 0 0 0 0 0 0 0 0 0 0 0 0 0 .4 0"/><feOffset dx="4" dy="4" in="blurOut2" result="blurOut3"/><feBlend in="SourceGraphic" in2="blurOut3" mode="normal"/></filter></defs><g><line style="stroke:#A80036;stroke-width:1;stroke-dasharray:5.0,5.0;" x1="23" x2="23" y1="88.2969" y2="312.2266"/><line style="stroke:#A80036;stroke-width:1;stroke-dasharray:5.0,5.0;" x1="287.5972" x2="287.5972" y1="88.2969" y2="312.2266"/><line style="stroke:#A80036;stroke-width:1;stroke-dasharray:5.0,5.0;" x1="474.7129" x2="474.7129" y1="88.2969" y2="312.2266"/><line style="stroke:#A80036;stroke-width:1;stroke-dasharray:5.0,5.0;" x1="610.6191" x2="610.6191" y1="88.2969" y2="312.2266"/><line style="stroke:#A80036;stroke-width:1;stroke-dasharray:5.0,5.0;" x1="894.5342" x2="894.5342" y1="88.2969" y2="312.2266"/><line style="stroke:#A80036;stroke-width:1;stroke-dasharray:5.0,5.0;" x1="1176.1211" x2="1176.1211" y1="88.2969" y2="312.2266"/><text fill="#000000" font-family="sans-serif" font-size="14" lengthAdjust="spacing" textLength="31.9102" x="5" y="84.9951">User</text><ellipse cx="23.9551" cy="15" fill="#FEFECE" filter="url(#f1x36mnmpd4d44)" rx="8" ry="8" style="stroke:#A80036;stroke-width:2;"/><path d="M23.9551,23 L23.9551,50 M10.9551,31 L36.9551,31 M23.9551,50 L10.9551,65 M23.9551,50 L36.9551,65 " fill="none" filter="url(#f1x36mnmpd4d44)" style="stroke:#A80036;stroke-width:2;"/><text fill="#000000" font-family="sans-serif" font-size="14" lengthAdjust="spacing" textLength="31.9102" x="5" y="324.2217">User</text><ellipse cx="23.9551" cy="337.5234" fill="#FEFECE" filter="url(#f1x36mnmpd4d44)" rx="8" ry="8" style="stroke:#A80036;stroke-width:2;"/><path d="M23.9551,345.5234 L23.9551,372.5234 M10.9551,353.5234 L36.9551,353.5234 M23.9551,372.5234 L10.9551,387.5234 M23.9551,372.5234 L36.9551,387.5234 " fill="none" filter="url(#f1x36mnmpd4d44)" style="stroke:#A80036;stroke-width:2;"/><rect fill="#FEFECE" filter="url(#f1x36mnmpd4d44)" height="30.2969" style="stroke:#A80036;stroke-width:1.5;" width="73.4111" x="249.5972" y="53"/><text fill="#000000" font-family="sans-serif" font-size="14" lengthAdjust="spacing" textLength="59.4111" x="256.5972" y="72.9951">Auth API</text><rect fill="#FEFECE" filter="url(#f1x36mnmpd4d44)" height="30.2969" style="stroke:#A80036;stroke-width:1.5;" width="73.4111" x="249.5972" y="311.2266"/><text fill="#000000" font-family="sans-serif" font-size="14" lengthAdjust="spacing" textLength="59.4111" x="256.5972" y="331.2217">Auth API</text><rect fill="#FEFECE" filter="url(#f1x36mnmpd4d44)" height="30.2969" style="stroke:#A80036;stroke-width:1.5;" width="131.9063" x="407.7129" y="53"/><text fill="#000000" font-family="sans-serif" font-size="14" lengthAdjust="spacing" textLength="117.9063" x="414.7129" y="72.9951">Auth Middleware</text><rect fill="#FEFECE" filter="url(#f1x36mnmpd4d44)" height="30.2969" style="stroke:#A80036;stroke-width:1.5;" width="131.9063" x="407.7129" y="311.2266"/><text fill="#000000" font-family="sans-serif" font-size="14" lengthAdjust="spacing" textLength="117.9063" x="414.7129" y="331.2217">Auth Middleware</text><rect fill="#FEFECE" filter="url(#f1x36mnmpd4d44)" height="30.2969" style="stroke:#A80036;stroke-width:1.5;" width="110.2773" x="553.6191" y="53"/><text fill="#000000" font-family="sans-serif" font-size="14" lengthAdjust="spacing" textLength="96.2773" x="560.6191" y="72.9951">Event Emitter</text><rect fill="#FEFECE" filter="url(#f1x36mnmpd4d44)" height="30.2969" style="stroke:#A80036;stroke-width:1.5;" width="110.2773" x="553.6191" y="311.2266"/><text fill="#000000" font-family="sans-serif" font-size="14" lengthAdjust="spacing" textLength="96.2773" x="560.6191" y="331.2217">Event Emitter</text><rect fill="#FEFECE" filter="url(#f1x36mnmpd4d44)" height="30.2969" style="stroke:#A80036;stroke-width:1.5;" width="150.3838" x="817.5342" y="53"/><text fill="#000000" font-family="sans-serif" font-size="14" lengthAdjust="spacing" textLength="136.3838" x="824.5342" y="72.9951">Scoreboard Service</text><rect fill="#FEFECE" filter="url(#f1x36mnmpd4d44)" height="30.2969" style="stroke:#A80036;stroke-width:1.5;" width="150.3838" x="817.5342" y="311.2266"/><text fill="#000000" font-family="sans-serif" font-size="14" lengthAdjust="spacing" textLength="136.3838" x="824.5342" y="331.2217">Scoreboard Service</text><text fill="#000000" font-family="sans-serif" font-size="14" lengthAdjust="spacing" textLength="38.4111" x="1154.1211" y="84.9951">Redis</text><path d="M1158.3267,36 C1158.3267,26 1176.3267,26 1176.3267,26 C1176.3267,26 1194.3267,26 1194.3267,36 L1194.3267,62 C1194.3267,72 1176.3267,72 1176.3267,72 C1176.3267,72 1158.3267,72 1158.3267,62 L1158.3267,36 " fill="#FEFECE" filter="url(#f1x36mnmpd4d44)" style="stroke:#A80036;stroke-width:1.5;"/><path d="M1158.3267,36 C1158.3267,46 1176.3267,46 1176.3267,46 C1176.3267,46 1194.3267,46 1194.3267,36 " fill="none" style="stroke:#A80036;stroke-width:1.5;"/><text fill="#000000" font-family="sans-serif" font-size="14" lengthAdjust="spacing" textLength="38.4111" x="1154.1211" y="324.2217">Redis</text><path d="M1158.3267,337.5234 C1158.3267,327.5234 1176.3267,327.5234 1176.3267,327.5234 C1176.3267,327.5234 1194.3267,327.5234 1194.3267,337.5234 L1194.3267,363.5234 C1194.3267,373.5234 1176.3267,373.5234 1176.3267,373.5234 C1176.3267,373.5234 1158.3267,373.5234 1158.3267,363.5234 L1158.3267,337.5234 " fill="#FEFECE" filter="url(#f1x36mnmpd4d44)" style="stroke:#A80036;stroke-width:1.5;"/><path d="M1158.3267,337.5234 C1158.3267,347.5234 1176.3267,347.5234 1176.3267,347.5234 C1176.3267,347.5234 1194.3267,347.5234 1194.3267,337.5234 " fill="none" style="stroke:#A80036;stroke-width:1.5;"/><polygon fill="#A80036" points="276.3027,115.4297,286.3027,119.4297,276.3027,123.4297,280.3027,119.4297" style="stroke:#A80036;stroke-width:1;"/><line style="stroke:#A80036;stroke-width:1;" x1="23.9551" x2="282.3027" y1="119.4297" y2="119.4297"/><text fill="#000000" font-family="sans-serif" font-size="13" lengthAdjust="spacing" textLength="161.5796" x="30.9551" y="114.3638">Register (POST /register)</text><polygon fill="#A80036" points="463.666,144.5625,473.666,148.5625,463.666,152.5625,467.666,148.5625" style="stroke:#A80036;stroke-width:1;"/><line style="stroke:#A80036;stroke-width:1;" x1="288.3027" x2="469.666" y1="148.5625" y2="148.5625"/><text fill="#000000" font-family="sans-serif" font-size="13" lengthAdjust="spacing" textLength="163.3633" x="295.3027" y="143.4966">Validate and Create User</text><polygon fill="#A80036" points="299.3027,173.6953,289.3027,177.6953,299.3027,181.6953,295.3027,177.6953" style="stroke:#A80036;stroke-width:1;"/><line style="stroke:#A80036;stroke-width:1;" x1="293.3027" x2="474.666" y1="177.6953" y2="177.6953"/><text fill="#000000" font-family="sans-serif" font-size="13" lengthAdjust="spacing" textLength="160.1831" x="305.3027" y="172.6294">Return userId, nickname</text><polygon fill="#A80036" points="598.7578,202.8281,608.7578,206.8281,598.7578,210.8281,602.7578,206.8281" style="stroke:#A80036;stroke-width:1;"/><line style="stroke:#A80036;stroke-width:1;" x1="288.3027" x2="604.7578" y1="206.8281" y2="206.8281"/><text fill="#000000" font-family="sans-serif" font-size="13" lengthAdjust="spacing" textLength="186.7671" x="295.3027" y="201.7622">Emit "user-registered" Event</text><polygon fill="#A80036" points="882.7261,231.9609,892.7261,235.9609,882.7261,239.9609,886.7261,235.9609" style="stroke:#A80036;stroke-width:1;"/><line style="stroke:#A80036;stroke-width:1;" x1="610.7578" x2="888.7261" y1="235.9609" y2="235.9609"/><text fill="#000000" font-family="sans-serif" font-size="13" lengthAdjust="spacing" textLength="259.9683" x="617.7578" y="230.895">Handle Event with { userId, nickname }</text><polygon fill="#A80036" points="1164.3267,261.0938,1174.3267,265.0938,1164.3267,269.0938,1168.3267,265.0938" style="stroke:#A80036;stroke-width:1;"/><line style="stroke:#A80036;stroke-width:1;" x1="894.7261" x2="1170.3267" y1="265.0938" y2="265.0938"/><text fill="#000000" font-family="sans-serif" font-size="13" lengthAdjust="spacing" textLength="257.6006" x="901.7261" y="260.0278">ZADD leaderboard 0 "userId:nickname"</text><polygon fill="#A80036" points="34.9551,290.2266,24.9551,294.2266,34.9551,298.2266,30.9551,294.2266" style="stroke:#A80036;stroke-width:1;"/><line style="stroke:#A80036;stroke-width:1;" x1="28.9551" x2="287.3027" y1="294.2266" y2="294.2266"/><text fill="#000000" font-family="sans-serif" font-size="13" lengthAdjust="spacing" textLength="240.3477" x="40.9551" y="289.1606">Response (e.g., registration success)</text><!--SRC=[PL0xJyCm4DxzAqwUMgajp1wG8bg938YA00FRrJuLgwaJdPrsGFnt_4WKAYQVxxxx7kTFrW5tdeH07Jg6TqyiUkHWjUtH1QZsDQ07MGtXAttapRIqdwqnBLsHIIPiwjsYTXUAp-viGo3EcB6-XJMwOpfqo0OQuelLXMzk2uC13-W9NibOBqIo2-k7P4p5tj7wI0gB_Klp1dSy_fSYXKYeQ4p11xOsyX2WC_38bCeSEsUPoSB03eOugCqAdDKdXsUQg4R_AXSW4smzwP6Ha1EB4PKMvX0Adg9oImK3LnjLl_y9mOyGV-uH6N9a1P_LTWijeI4ke_iYNnirxKensKovKXRVTovURK6RusO5nIXZi9q3FsXDtYz_0G00]--></g></svg>