<svg xmlns="http://www.w3.org/2000/svg" xmlns:xlink="http://www.w3.org/1999/xlink" contentStyleType="text/css" height="758px" preserveAspectRatio="none" style="width:1481px;height:758px;background:#FFFFFF;" version="1.1" viewBox="0 0 1481 758" width="1481px" zoomAndPan="magnify"><defs><filter height="300%" id="fsz5w5bpm06xq" width="300%" x="-1" y="-1"><feGaussianBlur result="blurOut" stdDeviation="2"/><feColorMatrix in="blurOut" result="blurOut2" type="matrix" values="0 0 0 0 0 0 0 0 0 0 0 0 0 0 0 0 0 0 .4 0"/><feOffset dx="4" dy="4" in="blurOut2" result="blurOut3"/><feBlend in="SourceGraphic" in2="blurOut3" mode="normal"/></filter></defs><g><line style="stroke:#A80036;stroke-width:1;stroke-dasharray:5.0,5.0;" x1="23" x2="23" y1="88.2969" y2="674.6875"/><line style="stroke:#A80036;stroke-width:1;stroke-dasharray:5.0,5.0;" x1="281.8237" x2="281.8237" y1="88.2969" y2="674.6875"/><line style="stroke:#A80036;stroke-width:1;stroke-dasharray:5.0,5.0;" x1="484.2153" x2="484.2153" y1="88.2969" y2="674.6875"/><line style="stroke:#A80036;stroke-width:1;stroke-dasharray:5.0,5.0;" x1="620.1216" x2="620.1216" y1="88.2969" y2="674.6875"/><line style="stroke:#A80036;stroke-width:1;stroke-dasharray:5.0,5.0;" x1="978.6406" x2="978.6406" y1="88.2969" y2="674.6875"/><line style="stroke:#A80036;stroke-width:1;stroke-dasharray:5.0,5.0;" x1="1337.9102" x2="1337.9102" y1="88.2969" y2="674.6875"/><line style="stroke:#A80036;stroke-width:1;stroke-dasharray:5.0,5.0;" x1="1418.3213" x2="1418.3213" y1="88.2969" y2="674.6875"/><text fill="#000000" font-family="sans-serif" font-size="14" lengthAdjust="spacing" textLength="31.9102" x="5" y="84.9951">User</text><ellipse cx="23.9551" cy="15" fill="#FEFECE" filter="url(#fsz5w5bpm06xq)" rx="8" ry="8" style="stroke:#A80036;stroke-width:2;"/><path d="M23.9551,23 L23.9551,50 M10.9551,31 L36.9551,31 M23.9551,50 L10.9551,65 M23.9551,50 L36.9551,65 " fill="none" filter="url(#fsz5w5bpm06xq)" style="stroke:#A80036;stroke-width:2;"/><text fill="#000000" font-family="sans-serif" font-size="14" lengthAdjust="spacing" textLength="31.9102" x="5" y="686.6826">User</text><ellipse cx="23.9551" cy="699.9844" fill="#FEFECE" filter="url(#fsz5w5bpm06xq)" rx="8" ry="8" style="stroke:#A80036;stroke-width:2;"/><path d="M23.9551,707.9844 L23.9551,734.9844 M10.9551,715.9844 L36.9551,715.9844 M23.9551,734.9844 L10.9551,749.9844 M23.9551,734.9844 L36.9551,749.9844 " fill="none" filter="url(#fsz5w5bpm06xq)" style="stroke:#A80036;stroke-width:2;"/><rect fill="#FEFECE" filter="url(#fsz5w5bpm06xq)" height="30.2969" style="stroke:#A80036;stroke-width:1.5;" width="36.1484" x="261.8237" y="53"/><text fill="#000000" font-family="sans-serif" font-size="14" lengthAdjust="spacing" textLength="22.1484" x="268.8237" y="72.9951">API</text><rect fill="#FEFECE" filter="url(#fsz5w5bpm06xq)" height="30.2969" style="stroke:#A80036;stroke-width:1.5;" width="36.1484" x="261.8237" y="673.6875"/><text fill="#000000" font-family="sans-serif" font-size="14" lengthAdjust="spacing" textLength="22.1484" x="268.8237" y="693.6826">API</text><rect fill="#FEFECE" filter="url(#fsz5w5bpm06xq)" height="30.2969" style="stroke:#A80036;stroke-width:1.5;" width="131.9063" x="417.2153" y="53"/><text fill="#000000" font-family="sans-serif" font-size="14" lengthAdjust="spacing" textLength="117.9063" x="424.2153" y="72.9951">Auth Middleware</text><rect fill="#FEFECE" filter="url(#fsz5w5bpm06xq)" height="30.2969" style="stroke:#A80036;stroke-width:1.5;" width="131.9063" x="417.2153" y="673.6875"/><text fill="#000000" font-family="sans-serif" font-size="14" lengthAdjust="spacing" textLength="117.9063" x="424.2153" y="693.6826">Auth Middleware</text><rect fill="#FEFECE" filter="url(#fsz5w5bpm06xq)" height="30.2969" style="stroke:#A80036;stroke-width:1.5;" width="110.2773" x="563.1216" y="53"/><text fill="#000000" font-family="sans-serif" font-size="14" lengthAdjust="spacing" textLength="96.2773" x="570.1216" y="72.9951">Event Emitter</text><rect fill="#FEFECE" filter="url(#fsz5w5bpm06xq)" height="30.2969" style="stroke:#A80036;stroke-width:1.5;" width="110.2773" x="563.1216" y="673.6875"/><text fill="#000000" font-family="sans-serif" font-size="14" lengthAdjust="spacing" textLength="96.2773" x="570.1216" y="693.6826">Event Emitter</text><rect fill="#FEFECE" filter="url(#fsz5w5bpm06xq)" height="30.2969" style="stroke:#A80036;stroke-width:1.5;" width="150.3838" x="901.6406" y="53"/><text fill="#000000" font-family="sans-serif" font-size="14" lengthAdjust="spacing" textLength="136.3838" x="908.6406" y="72.9951">Scoreboard Service</text><rect fill="#FEFECE" filter="url(#fsz5w5bpm06xq)" height="30.2969" style="stroke:#A80036;stroke-width:1.5;" width="150.3838" x="901.6406" y="673.6875"/><text fill="#000000" font-family="sans-serif" font-size="14" lengthAdjust="spacing" textLength="136.3838" x="908.6406" y="693.6826">Scoreboard Service</text><text fill="#000000" font-family="sans-serif" font-size="14" lengthAdjust="spacing" textLength="38.4111" x="1315.9102" y="84.9951">Redis</text><path d="M1320.1157,36 C1320.1157,26 1338.1157,26 1338.1157,26 C1338.1157,26 1356.1157,26 1356.1157,36 L1356.1157,62 C1356.1157,72 1338.1157,72 1338.1157,72 C1338.1157,72 1320.1157,72 1320.1157,62 L1320.1157,36 " fill="#FEFECE" filter="url(#fsz5w5bpm06xq)" style="stroke:#A80036;stroke-width:1.5;"/><path d="M1320.1157,36 C1320.1157,46 1338.1157,46 1338.1157,46 C1338.1157,46 1356.1157,46 1356.1157,36 " fill="none" style="stroke:#A80036;stroke-width:1.5;"/><text fill="#000000" font-family="sans-serif" font-size="14" lengthAdjust="spacing" textLength="38.4111" x="1315.9102" y="686.6826">Redis</text><path d="M1320.1157,699.9844 C1320.1157,689.9844 1338.1157,689.9844 1338.1157,689.9844 C1338.1157,689.9844 1356.1157,689.9844 1356.1157,699.9844 L1356.1157,725.9844 C1356.1157,735.9844 1338.1157,735.9844 1338.1157,735.9844 C1338.1157,735.9844 1320.1157,735.9844 1320.1157,725.9844 L1320.1157,699.9844 " fill="#FEFECE" filter="url(#fsz5w5bpm06xq)" style="stroke:#A80036;stroke-width:1.5;"/><path d="M1320.1157,699.9844 C1320.1157,709.9844 1338.1157,709.9844 1338.1157,709.9844 C1338.1157,709.9844 1356.1157,709.9844 1356.1157,699.9844 " fill="none" style="stroke:#A80036;stroke-width:1.5;"/><rect fill="#FEFECE" filter="url(#fsz5w5bpm06xq)" height="30.2969" style="stroke:#A80036;stroke-width:1.5;" width="92.7021" x="1370.3213" y="53"/><text fill="#000000" font-family="sans-serif" font-size="14" lengthAdjust="spacing" textLength="78.7021" x="1377.3213" y="72.9951">WebSocket</text><rect fill="#FEFECE" filter="url(#fsz5w5bpm06xq)" height="30.2969" style="stroke:#A80036;stroke-width:1.5;" width="92.7021" x="1370.3213" y="673.6875"/><text fill="#000000" font-family="sans-serif" font-size="14" lengthAdjust="spacing" textLength="78.7021" x="1377.3213" y="693.6826">WebSocket</text><polygon fill="#A80036" points="269.8979,115.4297,279.8979,119.4297,269.8979,123.4297,273.8979,119.4297" style="stroke:#A80036;stroke-width:1;"/><line style="stroke:#A80036;stroke-width:1;" x1="23.9551" x2="275.8979" y1="119.4297" y2="119.4297"/><text fill="#000000" font-family="sans-serif" font-size="13" lengthAdjust="spacing" textLength="233.9429" x="30.9551" y="114.3638">Perform Action (POST /some-action)</text><polygon fill="#A80036" points="473.1685,144.5625,483.1685,148.5625,473.1685,152.5625,477.1685,148.5625" style="stroke:#A80036;stroke-width:1;"/><line style="stroke:#A80036;stroke-width:1;" x1="281.8979" x2="479.1685" y1="148.5625" y2="148.5625"/><text fill="#000000" font-family="sans-serif" font-size="13" lengthAdjust="spacing" textLength="179.2705" x="288.8979" y="143.4966">Validate and Decode Token</text><polygon fill="#A80036" points="292.8979,173.6953,282.8979,177.6953,292.8979,181.6953,288.8979,177.6953" style="stroke:#A80036;stroke-width:1;"/><line style="stroke:#A80036;stroke-width:1;" x1="286.8979" x2="484.1685" y1="177.6953" y2="177.6953"/><text fill="#000000" font-family="sans-serif" font-size="13" lengthAdjust="spacing" textLength="160.1831" x="298.8979" y="172.6294">Return userId, nickname</text><polygon fill="#A80036" points="608.2603,202.8281,618.2603,206.8281,608.2603,210.8281,612.2603,206.8281" style="stroke:#A80036;stroke-width:1;"/><line style="stroke:#A80036;stroke-width:1;" x1="281.8979" x2="614.2603" y1="206.8281" y2="206.8281"/><text fill="#000000" font-family="sans-serif" font-size="13" lengthAdjust="spacing" textLength="182.0381" x="288.8979" y="201.7622">Emit "score-increase" Event</text><polygon fill="#A80036" points="966.8325,231.9609,976.8325,235.9609,966.8325,239.9609,970.8325,235.9609" style="stroke:#A80036;stroke-width:1;"/><line style="stroke:#A80036;stroke-width:1;" x1="620.2603" x2="972.8325" y1="235.9609" y2="235.9609"/><text fill="#000000" font-family="sans-serif" font-size="13" lengthAdjust="spacing" textLength="334.5723" x="627.2603" y="230.895">Handle Event with { userId, nickname, increment }</text><polygon fill="#A80036" points="1326.1157,261.0938,1336.1157,265.0938,1326.1157,269.0938,1330.1157,265.0938" style="stroke:#A80036;stroke-width:1;"/><line style="stroke:#A80036;stroke-width:1;" x1="978.8325" x2="1332.1157" y1="265.0938" y2="265.0938"/><text fill="#000000" font-family="sans-serif" font-size="13" lengthAdjust="spacing" textLength="335.2832" x="985.8325" y="260.0278">ZINCRBY leaderboard increment "userId:nickname"</text><polygon fill="#A80036" points="1326.1157,290.2266,1336.1157,294.2266,1326.1157,298.2266,1330.1157,294.2266" style="stroke:#A80036;stroke-width:1;"/><line style="stroke:#A80036;stroke-width:1;" x1="978.8325" x2="1332.1157" y1="294.2266" y2="294.2266"/><text fill="#000000" font-family="sans-serif" font-size="13" lengthAdjust="spacing" textLength="162.7222" x="985.8325" y="289.1606">ZRANGE leaderboard 0 9</text><polygon fill="#A80036" points="989.8325,319.3594,979.8325,323.3594,989.8325,327.3594,985.8325,323.3594" style="stroke:#A80036;stroke-width:1;"/><line style="stroke:#A80036;stroke-width:1;" x1="983.8325" x2="1337.1157" y1="323.3594" y2="323.3594"/><text fill="#000000" font-family="sans-serif" font-size="13" lengthAdjust="spacing" textLength="140.5054" x="995.8325" y="318.2935">Return Top 10 Scores</text><polygon fill="#A80036" points="1406.6724,348.4922,1416.6724,352.4922,1406.6724,356.4922,1410.6724,352.4922" style="stroke:#A80036;stroke-width:1;"/><line style="stroke:#A80036;stroke-width:1;" x1="978.8325" x2="1412.6724" y1="352.4922" y2="352.4922"/><text fill="#000000" font-family="sans-serif" font-size="13" lengthAdjust="spacing" textLength="234.9775" x="985.8325" y="347.4263">Push Updated Leaderboard to Users</text><polygon fill="#A80036" points="34.9551,377.625,24.9551,381.625,34.9551,385.625,30.9551,381.625" style="stroke:#A80036;stroke-width:1;"/><line style="stroke:#A80036;stroke-width:1;" x1="28.9551" x2="280.8979" y1="381.625" y2="381.625"/><text fill="#000000" font-family="sans-serif" font-size="13" lengthAdjust="spacing" textLength="160.9258" x="40.9551" y="376.5591">Response (e.g., success)</text><rect fill="#EEEEEE" filter="url(#fsz5w5bpm06xq)" height="3" style="stroke:#EEEEEE;stroke-width:1;" width="1472.0234" x="0" y="410.1914"/><line style="stroke:#000000;stroke-width:1;" x1="0" x2="1472.0234" y1="410.1914" y2="410.1914"/><line style="stroke:#000000;stroke-width:1;" x1="0" x2="1472.0234" y1="413.1914" y2="413.1914"/><rect fill="#EEEEEE" filter="url(#fsz5w5bpm06xq)" height="23.1328" style="stroke:#000000;stroke-width:2;" width="186.5483" x="642.7375" y="399.625"/><text fill="#000000" font-family="sans-serif" font-size="13" font-weight="bold" lengthAdjust="spacing" textLength="168.0225" x="648.7375" y="415.6919">User Opens Dashboard</text><polygon fill="#A80036" points="269.8979,449.8906,279.8979,453.8906,269.8979,457.8906,273.8979,453.8906" style="stroke:#A80036;stroke-width:1;"/><line style="stroke:#A80036;stroke-width:1;" x1="23.9551" x2="275.8979" y1="453.8906" y2="453.8906"/><text fill="#000000" font-family="sans-serif" font-size="13" lengthAdjust="spacing" textLength="113.6802" x="30.9551" y="448.8247">GET /leaderboard</text><polygon fill="#A80036" points="966.8325,463.8906,976.8325,467.8906,966.8325,471.8906,970.8325,467.8906" style="stroke:#A80036;stroke-width:1;"/><line style="stroke:#A80036;stroke-width:1;" x1="281.8979" x2="972.8325" y1="467.8906" y2="467.8906"/><polygon fill="#A80036" points="1326.1157,493.0234,1336.1157,497.0234,1326.1157,501.0234,1330.1157,497.0234" style="stroke:#A80036;stroke-width:1;"/><line style="stroke:#A80036;stroke-width:1;" x1="978.8325" x2="1332.1157" y1="497.0234" y2="497.0234"/><text fill="#000000" font-family="sans-serif" font-size="13" lengthAdjust="spacing" textLength="162.7222" x="985.8325" y="491.9575">ZRANGE leaderboard 0 9</text><polygon fill="#A80036" points="292.8979,522.1563,282.8979,526.1563,292.8979,530.1563,288.8979,526.1563" style="stroke:#A80036;stroke-width:1;"/><line style="stroke:#A80036;stroke-width:1;" x1="286.8979" x2="1337.1157" y1="526.1563" y2="526.1563"/><text fill="#000000" font-family="sans-serif" font-size="13" lengthAdjust="spacing" textLength="140.5054" x="298.8979" y="521.0903">Return Top 10 Scores</text><polygon fill="#A80036" points="34.9551,551.2891,24.9551,555.2891,34.9551,559.2891,30.9551,555.2891" style="stroke:#A80036;stroke-width:1;"/><line style="stroke:#A80036;stroke-width:1;" x1="28.9551" x2="280.8979" y1="555.2891" y2="555.2891"/><text fill="#000000" font-family="sans-serif" font-size="13" lengthAdjust="spacing" textLength="130.6538" x="40.9551" y="550.2231">Return Leaderboard</text><rect fill="#EEEEEE" filter="url(#fsz5w5bpm06xq)" height="3" style="stroke:#EEEEEE;stroke-width:1;" width="1472.0234" x="0" y="583.8555"/><line style="stroke:#000000;stroke-width:1;" x1="0" x2="1472.0234" y1="583.8555" y2="583.8555"/><line style="stroke:#000000;stroke-width:1;" x1="0" x2="1472.0234" y1="586.8555" y2="586.8555"/><rect fill="#EEEEEE" filter="url(#fsz5w5bpm06xq)" height="23.1328" style="stroke:#000000;stroke-width:2;" width="243.0044" x="614.5095" y="573.2891"/><text fill="#000000" font-family="sans-serif" font-size="13" font-weight="bold" lengthAdjust="spacing" textLength="224.4785" x="620.5095" y="589.356">User Subscribes to WebSocket</text><polygon fill="#A80036" points="1406.6724,623.5547,1416.6724,627.5547,1406.6724,631.5547,1410.6724,627.5547" style="stroke:#A80036;stroke-width:1;"/><line style="stroke:#A80036;stroke-width:1;" x1="23.9551" x2="1412.6724" y1="627.5547" y2="627.5547"/><text fill="#000000" font-family="sans-serif" font-size="13" lengthAdjust="spacing" textLength="228.1411" x="30.9551" y="622.4888">Connect to WebSocket for Updates</text><polygon fill="#A80036" points="34.9551,652.6875,24.9551,656.6875,34.9551,660.6875,30.9551,656.6875" style="stroke:#A80036;stroke-width:1;"/><line style="stroke:#A80036;stroke-width:1;" x1="28.9551" x2="1417.6724" y1="656.6875" y2="656.6875"/><text fill="#000000" font-family="sans-serif" font-size="13" lengthAdjust="spacing" textLength="234.9775" x="40.9551" y="651.6216">Push Updated Leaderboard to Users</text><!--SRC=[dLDDJyCm3BtdLrWzWRJnSQJIa0QRO18VqpgOu9Oc7eks9bMSmW7ntqdILMs741AdfFRBiz-pIrkbmHf2nhXmni8JeMKbjqu9LNBjO3oV0IT8_9dq4icuSXkuLrBky8DRJ08inFgewJlwOreevz16pFxUXsN2MCmDjn8ojEzAr7njc4dkUCu9OO5IKU_r2lFCY2swy6ILCHPKmF0oD9_27EtQs0B6mYcZuMZ-c2tXb4o1Gnv3noo8373VVGhFVATyCGIk9KnG68cmD5lKB2fkQ1VeAgkXygLcSW1QYQtc1JPSUvLfl412GSXGQM7HQqWWsiBse81lbQPmwolliCR0X_95Ft_K6K0aAmBaYx6EVvuiMfJ2w-pXUd7r0Zla4csTRLybDMNQC2Q_a2p63pVJ7iSPNB2OFMnyxydIb71-LcVeW7ML-ObKj86dCfWiuQv3x4nSG6ADY-4hq59fj1_z4PwydGo0AY6Gw9YnqIX2uB54JJ3XjAc9HgF-3jnC_SWx4Xh-pdxzItnt4_gg3mH4H4TgstfMvIIiof62_7QLEnA2PzT6QnIkZrc7FpRwI6oLjVN-DFWR]--></g></svg>