<svg xmlns="http://www.w3.org/2000/svg" xmlns:xlink="http://www.w3.org/1999/xlink" contentStyleType="text/css" height="396px" preserveAspectRatio="none" style="width:1287px;height:396px;background:#FFFFFF;" version="1.1" viewBox="0 0 1287 396" width="1287px" zoomAndPan="magnify"><defs><filter height="300%" id="f17fs9ujmn599i" width="300%" x="-1" y="-1"><feGaussianBlur result="blurOut" stdDeviation="2"/><feColorMatrix in="blurOut" result="blurOut2" type="matrix" values="0 0 0 0 0 0 0 0 0 0 0 0 0 0 0 0 0 0 .4 0"/><feOffset dx="4" dy="4" in="blurOut2" result="blurOut3"/><feBlend in="SourceGraphic" in2="blurOut3" mode="normal"/></filter></defs><g><line style="stroke:#A80036;stroke-width:1;stroke-dasharray:5.0,5.0;" x1="23" x2="23" y1="88.2969" y2="312.2266"/><line style="stroke:#A80036;stroke-width:1;stroke-dasharray:5.0,5.0;" x1="287.5972" x2="287.5972" y1="88.2969" y2="312.2266"/><line style="stroke:#A80036;stroke-width:1;stroke-dasharray:5.0,5.0;" x1="475.6152" x2="475.6152" y1="88.2969" y2="312.2266"/><line style="stroke:#A80036;stroke-width:1;stroke-dasharray:5.0,5.0;" x1="686.2944" x2="686.2944" y1="88.2969" y2="312.2266"/><line style="stroke:#A80036;stroke-width:1;stroke-dasharray:5.0,5.0;" x1="970.2095" x2="970.2095" y1="88.2969" y2="312.2266"/><line style="stroke:#A80036;stroke-width:1;stroke-dasharray:5.0,5.0;" x1="1251.7964" x2="1251.7964" y1="88.2969" y2="312.2266"/><text fill="#000000" font-family="sans-serif" font-size="14" lengthAdjust="spacing" textLength="31.9102" x="5" y="84.9951">User</text><ellipse cx="23.9551" cy="15" fill="#FEFECE" filter="url(#f17fs9ujmn599i)" rx="8" ry="8" style="stroke:#A80036;stroke-width:2;"/><path d="M23.9551,23 L23.9551,50 M10.9551,31 L36.9551,31 M23.9551,50 L10.9551,65 M23.9551,50 L36.9551,65 " fill="none" filter="url(#f17fs9ujmn599i)" style="stroke:#A80036;stroke-width:2;"/><text fill="#000000" font-family="sans-serif" font-size="14" lengthAdjust="spacing" textLength="31.9102" x="5" y="324.2217">User</text><ellipse cx="23.9551" cy="337.5234" fill="#FEFECE" filter="url(#f17fs9ujmn599i)" rx="8" ry="8" style="stroke:#A80036;stroke-width:2;"/><path d="M23.9551,345.5234 L23.9551,372.5234 M10.9551,353.5234 L36.9551,353.5234 M23.9551,372.5234 L10.9551,387.5234 M23.9551,372.5234 L36.9551,387.5234 " fill="none" filter="url(#f17fs9ujmn599i)" style="stroke:#A80036;stroke-width:2;"/><rect fill="#FEFECE" filter="url(#f17fs9ujmn599i)" height="30.2969" style="stroke:#A80036;stroke-width:1.5;" width="73.4111" x="249.5972" y="53"/><text fill="#000000" font-family="sans-serif" font-size="14" lengthAdjust="spacing" textLength="59.4111" x="256.5972" y="72.9951">Auth API</text><rect fill="#FEFECE" filter="url(#f17fs9ujmn599i)" height="30.2969" style="stroke:#A80036;stroke-width:1.5;" width="73.4111" x="249.5972" y="311.2266"/><text fill="#000000" font-family="sans-serif" font-size="14" lengthAdjust="spacing" textLength="59.4111" x="256.5972" y="331.2217">Auth API</text><rect fill="#FEFECE" filter="url(#f17fs9ujmn599i)" height="30.2969" style="stroke:#A80036;stroke-width:1.5;" width="102.1016" x="422.6152" y="53"/><text fill="#000000" font-family="sans-serif" font-size="14" lengthAdjust="spacing" textLength="88.1016" x="429.6152" y="72.9951">User Service</text><rect fill="#FEFECE" filter="url(#f17fs9ujmn599i)" height="30.2969" style="stroke:#A80036;stroke-width:1.5;" width="102.1016" x="422.6152" y="311.2266"/><text fill="#000000" font-family="sans-serif" font-size="14" lengthAdjust="spacing" textLength="88.1016" x="429.6152" y="331.2217">User Service</text><rect fill="#FEFECE" filter="url(#f17fs9ujmn599i)" height="30.2969" style="stroke:#A80036;stroke-width:1.5;" width="110.2773" x="629.2944" y="53"/><text fill="#000000" font-family="sans-serif" font-size="14" lengthAdjust="spacing" textLength="96.2773" x="636.2944" y="72.9951">Event Emitter</text><rect fill="#FEFECE" filter="url(#f17fs9ujmn599i)" height="30.2969" style="stroke:#A80036;stroke-width:1.5;" width="110.2773" x="629.2944" y="311.2266"/><text fill="#000000" font-family="sans-serif" font-size="14" lengthAdjust="spacing" textLength="96.2773" x="636.2944" y="331.2217">Event Emitter</text><rect fill="#FEFECE" filter="url(#f17fs9ujmn599i)" height="30.2969" style="stroke:#A80036;stroke-width:1.5;" width="150.3838" x="893.2095" y="53"/><text fill="#000000" font-family="sans-serif" font-size="14" lengthAdjust="spacing" textLength="136.3838" x="900.2095" y="72.9951">Scoreboard Service</text><rect fill="#FEFECE" filter="url(#f17fs9ujmn599i)" height="30.2969" style="stroke:#A80036;stroke-width:1.5;" width="150.3838" x="893.2095" y="311.2266"/><text fill="#000000" font-family="sans-serif" font-size="14" lengthAdjust="spacing" textLength="136.3838" x="900.2095" y="331.2217">Scoreboard Service</text><text fill="#000000" font-family="sans-serif" font-size="14" lengthAdjust="spacing" textLength="38.4111" x="1229.7964" y="84.9951">Redis</text><path d="M1234.002,36 C1234.002,26 1252.002,26 1252.002,26 C1252.002,26 1270.002,26 1270.002,36 L1270.002,62 C1270.002,72 1252.002,72 1252.002,72 C1252.002,72 1234.002,72 1234.002,62 L1234.002,36 " fill="#FEFECE" filter="url(#f17fs9ujmn599i)" style="stroke:#A80036;stroke-width:1.5;"/><path d="M1234.002,36 C1234.002,46 1252.002,46 1252.002,46 C1252.002,46 1270.002,46 1270.002,36 " fill="none" style="stroke:#A80036;stroke-width:1.5;"/><text fill="#000000" font-family="sans-serif" font-size="14" lengthAdjust="spacing" textLength="38.4111" x="1229.7964" y="324.2217">Redis</text><path d="M1234.002,337.5234 C1234.002,327.5234 1252.002,327.5234 1252.002,327.5234 C1252.002,327.5234 1270.002,327.5234 1270.002,337.5234 L1270.002,363.5234 C1270.002,373.5234 1252.002,373.5234 1252.002,373.5234 C1252.002,373.5234 1234.002,373.5234 1234.002,363.5234 L1234.002,337.5234 " fill="#FEFECE" filter="url(#f17fs9ujmn599i)" style="stroke:#A80036;stroke-width:1.5;"/><path d="M1234.002,337.5234 C1234.002,347.5234 1252.002,347.5234 1252.002,347.5234 C1252.002,347.5234 1270.002,347.5234 1270.002,337.5234 " fill="none" style="stroke:#A80036;stroke-width:1.5;"/><polygon fill="#A80036" points="276.3027,115.4297,286.3027,119.4297,276.3027,123.4297,280.3027,119.4297" style="stroke:#A80036;stroke-width:1;"/><line style="stroke:#A80036;stroke-width:1;" x1="23.9551" x2="282.3027" y1="119.4297" y2="119.4297"/><text fill="#000000" font-family="sans-serif" font-size="13" lengthAdjust="spacing" textLength="161.5796" x="30.9551" y="114.3638">Register (POST /register)</text><polygon fill="#A80036" points="463.666,144.5625,473.666,148.5625,463.666,152.5625,467.666,148.5625" style="stroke:#A80036;stroke-width:1;"/><line style="stroke:#A80036;stroke-width:1;" x1="288.3027" x2="469.666" y1="148.5625" y2="148.5625"/><text fill="#000000" font-family="sans-serif" font-size="13" lengthAdjust="spacing" textLength="163.3633" x="295.3027" y="143.4966">Validate and Create User</text><polygon fill="#A80036" points="299.3027,173.6953,289.3027,177.6953,299.3027,181.6953,295.3027,177.6953" style="stroke:#A80036;stroke-width:1;"/><line style="stroke:#A80036;stroke-width:1;" x1="293.3027" x2="474.666" y1="177.6953" y2="177.6953"/><text fill="#000000" font-family="sans-serif" font-size="13" lengthAdjust="spacing" textLength="160.1831" x="305.3027" y="172.6294">Return userId, nickname</text><polygon fill="#A80036" points="674.4331,202.8281,684.4331,206.8281,674.4331,210.8281,678.4331,206.8281" style="stroke:#A80036;stroke-width:1;"/><line style="stroke:#A80036;stroke-width:1;" x1="475.666" x2="680.4331" y1="206.8281" y2="206.8281"/><text fill="#000000" font-family="sans-serif" font-size="13" lengthAdjust="spacing" textLength="186.7671" x="482.666" y="201.7622">Emit "user-registered" Event</text><polygon fill="#A80036" points="958.4014,231.9609,968.4014,235.9609,958.4014,239.9609,962.4014,235.9609" style="stroke:#A80036;stroke-width:1;"/><line style="stroke:#A80036;stroke-width:1;" x1="686.4331" x2="964.4014" y1="235.9609" y2="235.9609"/><text fill="#000000" font-family="sans-serif" font-size="13" lengthAdjust="spacing" textLength="259.9683" x="693.4331" y="230.895">Handle Event with { userId, nickname }</text><polygon fill="#A80036" points="1240.002,261.0938,1250.002,265.0938,1240.002,269.0938,1244.002,265.0938" style="stroke:#A80036;stroke-width:1;"/><line style="stroke:#A80036;stroke-width:1;" x1="970.4014" x2="1246.002" y1="265.0938" y2="265.0938"/><text fill="#000000" font-family="sans-serif" font-size="13" lengthAdjust="spacing" textLength="257.6006" x="977.4014" y="260.0278">ZADD leaderboard 0 "userId:nickname"</text><polygon fill="#A80036" points="34.9551,290.2266,24.9551,294.2266,34.9551,298.2266,30.9551,294.2266" style="stroke:#A80036;stroke-width:1;"/><line style="stroke:#A80036;stroke-width:1;" x1="28.9551" x2="287.3027" y1="294.2266" y2="294.2266"/><text fill="#000000" font-family="sans-serif" font-size="13" lengthAdjust="spacing" textLength="240.3477" x="40.9551" y="289.1606">Response (e.g., registration success)</text><!--SRC=[PP0nJyCm48Lt_ugJfrPg2xC7f8XM8XCL0GQsgtrghQPsT7RAWFZls4v2YPXylllytZs7itN0Ff0GgADdU0l4eaEELjiENOHgNmC6a5KVJ_aYPrEPUMY8hrQJp63cviZkIkdONMoCn8KPwpdMQCzqyCXcfdTh2uCH3nW8NiZO84JnNZ_ahLJg7Mr8eh3OFpUlSCVZVIboWaobnHIyOskJ3W4w0uzCkIoPIxwRMEpPGPy6jLc1i_hiy4A_q1X0bG9avjQJ8Ha99R8OgVpWbaB1Kx9kQM3WqoR5htzEy2t4dmz92YMpWezgkuMMq10Fe_l1lZPgUYl553a7os52vrtwjWLjZfiL38ioHkiTX5vh2c7v0m00]--></g></svg>